# xmcd CD database file
#
# Track frame offsets:
#	150
#	16278
#	31938
#	51067
#	74154
#	93282
#	116628
#	146984
#	162996
#	183249
#	201991
#	218493
#
# Disc length: 3002 seconds
#
# Revision: 0
# Processed by: cddbd v1.5.1PL2 Copyright (c) Steve Scherf et al.
# Submitted via: CDex 1.51
#
DISCID=ad0bb80c
DTITLE=Les Projectionnistes - Vue
DYEAR=2005
DGENRE=Jazz
TTITLE0=Hors-d"oeuvre
TTITLE1=Péril en la demeure
TTITLE2=Hebdromadaire
TTITLE3=Transport
TTITLE4=Promenade solidaire
TTITLE5=Série B
TTITLE6=11h16
TTITLE7=Pile ou face
TTITLE8=Qui est à l'appareil?
TTITLE9=Poursuite impossible
TTITLE10=La suite la semaine prochaine
TTITLE11=Digestif
EXTD=YEAR: 2005
EXTT0=
EXTT1=
EXTT2=
EXTT3=
EXTT4=
EXTT5=
EXTT6=
EXTT7=
EXTT8=
EXTT9=
EXTT10=
EXTT11=
PLAYORDER=
